# 3ds Max Wavefront OBJ Exporter v0.97b - (c)2007 guruware
# File Created: 02.06.2015 12:25:34

mtllib MP_LargeRock.mtl

#
# object default
#

v  -0.2432 0.1880 -0.3152
v  -0.0779 0.1533 -0.2281
v  -0.0412 -0.0509 -0.2565
v  -0.3619 0.0118 -0.3088
v  -0.2303 0.4626 -0.1570
v  -0.0121 0.4116 -0.1729
v  0.0499 0.2002 -0.3386
v  0.1069 -0.0407 -0.3519
v  0.0970 0.4483 -0.2275
v  0.3809 0.2462 -0.2276
v  0.4539 -0.1475 -0.2454
v  0.2661 0.4777 -0.1907
v  -0.4974 0.0868 -0.0962
v  -0.3768 0.2744 -0.0694
v  -0.2897 -0.8541 -0.0053
v  -0.1184 -0.9034 0.0637
v  -0.1719 -0.9103 0.1215
v  -0.3065 -0.8396 0.0731
v  -0.0065 -0.8097 0.1654
v  -0.2327 -0.7294 0.2515
v  -0.2727 0.4264 -0.0738
v  -0.3515 0.0347 0.2716
v  -0.2293 0.2615 0.2477
v  -0.0932 -0.7290 -0.0847
v  0.0195 -0.8193 0.0931
v  0.3916 0.2420 0.0226
v  0.3347 0.4822 -0.0252
v  0.4827 -0.2169 0.0774
v  0.3645 0.2315 0.0851
v  0.2649 0.4705 0.1059
v  0.4074 -0.2163 0.1242
v  0.1079 0.5351 0.2436
v  0.1478 0.2788 0.3261
v  -0.0045 0.0347 0.4528
v  -0.0223 0.3104 0.3790
v  0.2212 -0.1538 0.3873
v  0.1205 -0.4624 0.3807
v  0.3428 -0.3867 0.0832
v  0.5239 -0.4569 -0.0424
v  0.5116 -0.4186 -0.2481
v  0.0700 -0.3167 -0.4087
v  -0.1277 -0.4178 -0.2843
v  -0.3963 -0.3235 -0.3218
v  -0.5586 -0.2007 -0.0641
v  -0.3406 -0.1459 0.3569
v  -0.0742 -0.4463 0.4250
v  -0.3770 -0.3672 0.2940
v  0.3703 -0.7916 -0.0719
v  0.2956 -0.7536 -0.2217
v  0.1102 -0.6821 -0.2808
v  -0.0088 -0.6143 -0.1575
v  -0.1429 -0.6779 -0.1426
v  0.0212 -0.6773 -0.0341
v  -0.4011 -0.8735 -0.0591
v  -0.5534 -0.4925 -0.2056
v  -0.6179 -0.4250 -0.0779
v  -0.4602 -0.8402 0.0604
v  -0.3219 -0.6437 0.2578
v  -0.0551 -0.7334 0.3001
v  0.1312 -0.7469 0.2499
v  0.2399 -0.6910 0.0576
v  0.1758 -0.7908 0.1295
v  0.1066 -0.7546 -0.1540
v  0.2156 -0.8226 0.0169
v  0.2335 -0.8547 -0.1852
v  0.2510 -0.8844 -0.0398
v  0.1406 0.7604 0.1254
v  -0.2682 0.4192 0.1947
v  0.0496 0.7363 0.1488
v  0.0054 0.5804 0.3156
v  -0.2315 0.5769 0.2045
v  -0.1701 0.7597 0.1312
v  -0.2191 0.5583 -0.1076
v  -0.1688 0.7575 -0.0738
v  0.1082 0.5601 -0.1988
v  0.0574 0.7815 -0.1570
v  0.2231 0.5598 -0.1281
v  0.1505 0.7634 -0.0667
v  0.2191 0.7699 0.0708
v  -0.1396 0.8893 0.0579
v  -0.1530 0.8721 -0.0001
v  0.0821 0.9457 0.0388
v  0.0317 0.9269 -0.0817
v  -0.0271 0.9469 0.0600
# 84 vertices

vn 0.1719 -0.2937 -0.9403
vn -0.5291 0.3630 -0.7670
vn -0.2572 0.0592 -0.9645
vn -0.6356 -0.2467 -0.7316
vn -0.7783 0.3972 -0.4863
vn -0.3853 0.3377 -0.8588
vn -0.0586 -0.2307 -0.9713
vn -0.0951 0.1140 -0.9889
vn -0.1467 0.3068 -0.9404
vn 0.7559 0.3607 -0.5464
vn 0.7849 0.1825 -0.5921
vn 0.5477 0.4707 -0.6917
vn -0.9999 0.0104 -0.0000
vn -0.1943 -0.5645 0.8022
vn -0.6819 -0.4943 -0.5391
vn 0.5326 -0.4298 0.7291
vn -0.2495 -0.8600 -0.4451
vn 0.5372 -0.5776 0.6146
vn 0.1362 -0.2565 0.9569
vn 0.2653 -0.4692 0.8423
vn -0.8215 0.3599 -0.4422
vn -0.6098 -0.0496 0.7910
vn 0.2354 -0.3997 -0.8859
vn 0.3438 -0.8422 -0.4154
vn 0.0946 -0.4370 -0.8945
vn 0.8316 0.4712 -0.2938
vn 0.8721 0.0148 0.4891
vn -0.1519 -0.8947 -0.4200
vn 0.8536 0.3345 0.3993
vn 0.7080 -0.1030 0.6987
vn 0.4771 0.2290 0.8485
vn 0.5353 0.1093 0.8376
vn -0.1118 -0.1190 0.9866
vn 0.5501 -0.2042 0.8098
vn 0.8285 0.0061 0.5600
vn 0.7259 -0.5439 0.4211
vn 0.4918 -0.8321 -0.2566
vn -0.4780 -0.5965 -0.6448
vn -0.1755 -0.9378 -0.2994
vn 0.6146 -0.6895 -0.3832
vn -0.9814 0.1872 -0.0431
vn -0.2652 -0.1550 0.9517
vn -0.5329 -0.1461 0.8335
vn -0.3830 -0.0974 0.9186
vn 0.8350 -0.4594 -0.3029
vn 0.7354 -0.1026 -0.6698
vn 0.0661 -0.3308 -0.9414
vn 0.3071 0.2070 -0.9289
vn 0.1802 -0.7536 0.6322
vn -0.1877 -0.7554 -0.6278
vn -0.4982 -0.7941 -0.3482
vn -0.0559 -0.4299 -0.9011
vn -0.7753 0.0182 0.6313
vn -0.6456 0.0044 0.7637
vn -0.0668 -0.6314 0.7725
vn -0.1216 -0.7913 -0.5993
vn 0.9638 0.1185 0.2388
vn 0.4823 -0.8152 0.3207
vn -0.4855 -0.4989 -0.7179
vn 0.0257 -0.8541 -0.5195
vn 0.9828 -0.1848 -0.0031
vn 0.4939 -0.1968 0.8470
vn -0.0621 0.0109 0.9980
vn 0.2199 0.4664 0.8568
vn -0.5574 0.4686 0.6853
vn -0.7852 0.3902 0.4807
vn -0.4195 0.5150 0.7475
vn -0.6303 0.2615 -0.7310
vn -0.8907 0.2953 -0.3455
vn 0.1514 0.3701 -0.9166
vn 0.1719 0.4326 -0.8851
vn 0.5928 0.3484 -0.7261
vn 0.6752 0.4780 -0.5618
vn 0.8065 0.5738 -0.1426
vn -0.6163 0.7331 0.2876
vn -0.7983 0.5266 -0.2921
vn 0.4000 0.9016 0.1650
vn 0.1003 0.7593 -0.6430
vn -0.3139 0.9327 0.1774
# 79 vertex normals

vt 0.5505 0.5440 0.0000
vt 0.5343 0.4631 0.0000
vt 0.6357 0.4533 0.0000
vt 0.6227 0.5680 0.0000
vt 0.4214 0.6074 0.0000
vt 0.3756 0.4760 0.0000
vt 0.4815 0.0786 0.0000
vt 0.3941 0.0929 0.0000
vt 0.3863 0.0242 0.0000
vt 0.4800 0.0226 0.0000
vt 0.5938 0.0524 0.0000
vt 0.5916 0.1117 0.0000
vt 0.4891 0.2008 0.0000
vt 0.3645 0.2079 0.0000
vt 0.5856 0.1878 0.0000
vt 0.6107 0.6442 0.0000
vt 0.5340 0.6570 0.0000
vt 0.8297 0.6339 0.0000
vt 0.8622 0.6411 0.0000
vt 0.8534 0.6509 0.0000
vt 0.8298 0.6502 0.0000
vt 0.8950 0.6682 0.0000
vt 0.8348 0.6928 0.0000
vt 0.4518 0.6564 0.0000
vt 0.6415 0.7577 0.0000
vt 0.5579 0.7972 0.0000
vt 0.8535 0.5873 0.0000
vt 0.9029 0.6400 0.0000
vt 0.4969 0.2902 0.0000
vt 0.5925 0.2610 0.0000
vt 0.3417 0.3021 0.0000
vt 0.4979 0.3171 0.0000
vt 0.6070 0.3247 0.0000
vt 0.3380 0.3275 0.0000
vt 0.6649 0.4134 0.0000
vt 0.5346 0.4501 0.0000
vt 0.6801 0.8880 0.0000
vt 0.5610 0.9052 0.0000
vt 0.7869 0.9509 0.0000
vt 0.5856 0.9877 0.0000
vt 0.3478 0.4474 0.0000
vt 0.2143 0.4333 0.0000
vt 0.2791 0.3189 0.0000
vt 0.2832 0.2605 0.0000
vt 0.2975 0.2181 0.0000
vt 0.3017 0.0975 0.0000
vt 0.2430 0.0394 0.0000
vt 0.7631 0.5098 0.0000
vt 0.7155 0.5734 0.0000
vt 0.6892 0.6450 0.0000
vt 0.6995 0.7626 0.0000
vt 0.8763 0.8337 0.0000
vt 0.8182 0.7918 0.0000
vt 0.7489 0.7268 0.0000
vt 0.2031 0.2336 0.0000
vt 0.2093 0.2007 0.0000
vt 0.2038 0.1513 0.0000
vt 0.1600 0.1094 0.0000
vt 0.8545 0.5365 0.0000
vt 0.8302 0.5755 0.0000
vt 0.8939 0.5600 0.0000
vt 0.8157 0.6338 0.0000
vt 0.7485 0.6145 0.0000
vt 0.7358 0.6367 0.0000
vt 0.8102 0.6462 0.0000
vt 0.8085 0.6966 0.0000
vt 0.8733 0.7151 0.0000
vt 0.1239 0.3439 0.0000
vt 0.1851 0.2839 0.0000
vt 0.9328 0.7226 0.0000
vt 0.1069 0.2713 0.0000
vt 0.9401 0.6491 0.0000
vt 0.1674 0.1739 0.0000
vt 0.1632 0.2196 0.0000
vt 0.1093 0.1341 0.0000
vt 0.1882 0.2058 0.0000
vt 0.1748 0.2275 0.0000
vt 0.7593 0.3496 0.0000
vt 0.4858 0.7812 0.0000
vt 0.3824 0.9384 0.0000
vt 0.4821 0.9233 0.0000
vt 0.4816 0.9859 0.0000
vt 0.3936 0.9856 0.0000
vt 0.4338 0.8055 0.0000
vt 0.3622 0.8243 0.0000
vt 0.3723 0.6507 0.0000
vt 0.2652 0.7013 0.0000
vt 0.2111 0.5142 0.0000
vt 0.1538 0.5872 0.0000
vt 0.6440 0.1327 0.0000
vt 0.6336 0.1982 0.0000
vt 0.7520 0.1572 0.0000
vt 0.7416 0.2125 0.0000
vt 0.7383 0.2782 0.0000
vt 0.2081 0.8029 0.0000
vt 0.2063 0.7627 0.0000
vt 0.8300 0.2309 0.0000
vt 0.0967 0.6777 0.0000
vt 0.8952 0.4262 0.0000
vt 0.7851 0.3876 0.0000
vt 0.8611 0.2686 0.0000
vt 0.9115 0.2948 0.0000
vt 0.8442 0.2005 0.0000
vt 0.9330 0.2682 0.0000
# 104 texture coords

g default
usemtl Material__25
s 1
f 1/1/1 2/2/2 3/3/3 4/4/4 
f 5/5/5 6/6/6 2/2/2 1/1/1 
f 7/7/7 8/8/8 3/9/3 2/10/2 
f 6/11/6 9/12/9 7/7/7 2/10/2 
f 10/13/10 11/14/11 8/8/8 7/7/7 
f 9/12/9 12/15/12 10/13/10 7/7/7 
f 4/4/4 13/16/13 14/17/14 1/1/1 
f 15/18/15 16/19/16 17/20/17 18/21/18 
f 18/21/18 17/20/17 19/22/19 20/23/20 
f 14/17/14 21/24/21 5/5/5 1/1/1 
f 14/17/14 13/16/13 22/25/14 23/26/22 
f 24/27/23 25/28/24 16/19/16 15/18/15 
f 26/29/25 10/13/10 12/15/12 27/30/26 
f 26/29/25 28/31/27 11/14/11 10/13/10 
f 29/32/28 26/29/25 27/30/26 30/33/29 
f 31/34/30 28/31/27 26/29/25 29/32/28 
f 30/33/29 32/35/31 33/36/32 29/32/28 
f 23/26/22 22/25/14 34/37/22 35/38/33 
f 34/37/22 36/39/33 33/40/32 35/38/33 
f 36/41/33 31/34/30 29/32/28 33/36/32 
f 37/42/34 38/43/35 31/34/30 36/41/33 
f 38/43/35 39/44/36 28/31/27 31/34/30 
f 39/44/36 40/45/37 11/14/11 28/31/27 
f 11/14/11 40/45/37 41/46/38 8/8/8 
f 41/46/38 42/47/39 3/9/3 8/8/8 
f 4/4/4 3/3/3 42/48/39 43/49/40 
f 4/4/4 43/49/40 44/50/41 13/16/13 
f 44/50/41 45/51/42 22/25/14 13/16/13 
f 37/52/34 36/39/33 34/37/22 46/53/43 
f 45/51/42 34/37/22 22/25/14 
f 45/51/42 47/54/44 46/53/43 34/37/22 
f 39/44/36 48/55/45 49/56/46 40/45/37 
f 40/45/37 49/56/46 50/57/47 41/46/38 
f 50/57/47 51/58/48 42/47/39 41/46/38 
f 43/49/40 42/48/39 51/59/48 52/60/49 
f 51/59/48 53/61/50 24/27/23 52/60/49 
f 52/60/49 24/27/23 15/18/15 54/62/51 
f 55/63/52 43/49/40 52/60/49 54/62/51 
f 44/50/41 43/49/40 55/63/52 56/64/53 
f 47/54/44 45/51/42 44/50/41 56/64/53 
f 57/65/54 56/64/53 55/63/52 54/62/51 
f 54/62/51 15/18/15 18/21/18 57/65/54 
f 58/66/54 47/54/44 56/64/53 57/65/54 
f 58/66/54 20/23/20 59/67/55 46/53/43 
f 58/66/54 46/53/43 47/54/44 
f 18/21/18 20/23/20 58/66/54 57/65/54 
f 37/42/34 60/68/56 61/69/57 38/43/35 
f 59/67/55 60/70/56 37/52/34 46/53/43 
f 38/43/35 61/69/57 48/55/45 39/44/36 
f 60/68/56 62/71/58 61/69/57 
f 19/22/19 59/67/55 20/23/20 
f 25/28/24 24/27/23 53/61/50 62/72/58 
f 19/22/19 17/20/17 16/19/16 25/28/24 
f 25/28/24 62/72/58 60/70/56 19/22/19 
f 19/22/19 60/70/56 59/67/55 
f 63/73/59 64/74/60 62/71/58 53/75/50 
f 63/73/59 53/75/50 51/58/48 50/57/47 
f 49/56/46 65/76/61 63/73/59 50/57/47 
f 48/55/45 64/74/60 66/77/62 
f 61/69/57 62/71/58 64/74/60 48/55/45 
f 65/76/61 49/56/46 48/55/45 66/77/62 
f 64/74/60 63/73/59 65/76/61 66/77/62 
f 32/35/31 30/33/29 67/78/31 
f 68/79/63 21/24/21 14/17/14 23/26/22 
f 69/80/64 70/81/65 32/82/31 67/83/31 
f 70/81/65 71/84/66 68/79/63 35/38/33 
f 35/38/33 68/79/63 23/26/22 
f 32/82/31 70/81/65 35/38/33 33/40/32 
f 72/85/67 71/84/66 70/81/65 69/80/64 
f 73/86/68 71/84/66 72/85/67 74/87/69 
f 6/6/6 5/5/5 73/86/68 75/88/70 
f 76/89/71 75/88/70 73/86/68 74/87/69 
f 75/90/70 9/12/9 6/11/6 
f 77/91/72 75/90/70 76/92/71 78/93/73 
f 79/94/74 27/30/26 77/91/72 78/93/73 
f 67/78/31 30/33/29 27/30/26 79/94/74 
f 27/30/26 12/15/12 77/91/72 
f 12/15/12 9/12/9 75/90/70 77/91/72 
f 73/86/68 21/24/21 68/79/63 71/84/66 
f 73/86/68 5/5/5 21/24/21 
f 74/87/69 72/85/67 80/95/75 81/96/76 
f 82/97/77 67/78/31 79/94/74 
f 76/89/71 74/87/69 81/96/76 83/98/78 
f 72/99/67 69/100/64 84/101/79 80/102/75 
f 78/93/73 76/92/71 83/103/78 82/97/77 
f 78/93/73 82/97/77 79/94/74 
f 83/103/78 81/104/76 84/101/79 82/97/77 
f 69/100/64 67/78/31 82/97/77 84/101/79 
f 80/102/75 84/101/79 81/104/76 
# 75 polygons - 14 triangles

